# xmcd
#
# Track frame offsets:
#	150
#	15138
#	33296
#	48177
#	62937
#	76229
#	94857
#	110138
#	125513
#	139853
#	154408
#	176947
#	195771
#	226940
#
# Disc length: 3271 seconds
#
# Revision: 2
# Processed by: cddbd v1.5.1PL2 Copyright (c) Steve Scherf et al.
# Submitted via: audiograbber 1.83.01
#
DISCID=b10cc50e
DTITLE=кайгс пападопоукос - дем евы стицлес
DYEAR=2006
DGENRE=Pop
TTITLE0=ауто еимаи
TTITLE1=хгба 88
TTITLE2=тыяа поу ха выяисоуле
TTITLE3=цата
TTITLE4=ежуце г цумаийа лоу апо то спити
TTITLE5=циа тис цумаийес фоуле
TTITLE6=дайяуа
TTITLE7=еимаи апко ма с' ацапы
TTITLE8=сам йимгсг апоцмысгс
TTITLE9=дем евы стицлес (битяимес)
TTITLE10=то йемо
TTITLE11=пеяасе г фыг лоу
TTITLE12=AFTER DARK
TTITLE13=йяужо TRACK
EXTD=
EXTT0=
EXTT1=
EXTT2=
EXTT3=
EXTT4=
EXTT5=
EXTT6=
EXTT7=
EXTT8=
EXTT9=
EXTT10=
EXTT11=
EXTT12=
EXTT13=
PLAYORDER=
